<?xml version="1.0" standalone="no"?>
<!DOCTYPE svg PUBLIC "-//W3C//DTD SVG 20010904//EN"
 "http://www.w3.org/TR/2001/REC-SVG-20010904/DTD/svg10.dtd">
<svg version="1.0" xmlns="http://www.w3.org/2000/svg"
 width="700.000000pt" height="700.000000pt" viewBox="0 0 700.000000 700.000000"
 preserveAspectRatio="xMidYMid meet">
<metadata>
Created by potrace 1.11, written by Peter Selinger 2001-2013
</metadata>
<g transform="translate(0.000000,700.000000) scale(0.100000,-0.100000)"
fill="#000000" stroke="none">
<path d="M1156 5176 c9 -29 362 -945 550 -1429 19 -49 100 -258 180 -465 80
-208 169 -438 198 -512 29 -74 81 -209 116 -300 35 -91 66 -168 70 -173 3 -4
68 125 143 287 l137 294 0 401 c0 423 4 470 46 545 27 48 96 119 135 140 73
37 90 39 429 42 184 1 354 3 376 3 l42 1 -132 328 c-73 180 -179 444 -236 587
-58 143 -106 262 -108 265 -4 6 -533 9 -543 4 -5 -3 78 -223 120 -319 5 -11
28 -67 51 -125 l42 -106 -147 -369 c-81 -204 -153 -383 -160 -400 -7 -16 -29
-73 -50 -125 -49 -126 -68 -170 -72 -167 -1 2 -64 183 -138 403 -75 219 -179
525 -231 679 -53 154 -114 334 -136 400 -22 66 -42 122 -45 125 -3 3 -148 5
-324 6 -318 0 -319 0 -313 -20z"/>
<path d="M4204 5188 c-9 -15 -362 -1173 -358 -1177 4 -5 503 -5 508 0 3 2 40
101 84 219 44 118 124 332 177 475 54 143 110 294 125 335 16 41 33 88 39 103
22 55 33 53 -280 53 -160 0 -293 -4 -295 -8z"/>
<path d="M2825 3833 c-48 -25 -76 -55 -97 -102 -20 -43 -20 -69 -20 -907 l0
-863 21 -45 c23 -47 67 -86 116 -103 18 -6 191 -9 445 -8 376 1 418 3 448 18
70 38 70 37 191 342 51 127 96 239 101 250 5 11 15 36 23 56 37 93 124 152
227 153 97 1 175 -45 218 -131 17 -32 29 -63 75 -183 71 -183 169 -409 190
-436 56 -69 46 -68 507 -69 246 -1 427 2 445 8 50 16 96 57 119 106 21 46 21
47 20 911 -1 581 -4 873 -11 891 -18 42 -65 91 -108 110 -38 18 -102 19 -1460
18 -1272 0 -1423 -2 -1450 -16z m770 -623 c211 -47 330 -261 261 -468 -31 -93
-94 -164 -186 -209 -46 -23 -68 -27 -140 -28 -70 0 -94 4 -135 24 -71 35 -111
69 -149 126 -46 70 -59 109 -62 193 -9 232 194 411 411 362z m1575 -22 c72
-33 141 -101 176 -174 23 -48 29 -75 31 -141 4 -159 -71 -280 -214 -345 -37
-17 -67 -22 -133 -22 -74 -1 -92 3 -140 27 -68 35 -103 67 -144 132 -41 63
-58 122 -57 197 1 204 159 360 356 354 51 -2 87 -10 125 -28z"/>
</g>
</svg>
