<!--?xml version="1.0" encoding="UTF-8" standalone="no"?-->
<!-- Created with Inkscape (http://www.inkscape.org/) -->

<svg xmlns:dc="http://purl.org/dc/elements/1.1/" xmlns:cc="http://creativecommons.org/ns#" xmlns:rdf="http://www.w3.org/1999/02/22-rdf-syntax-ns#" xmlns:svg="http://www.w3.org/2000/svg" xmlns="http://www.w3.org/2000/svg" xmlns:sodipodi="http://sodipodi.sourceforge.net/DTD/sodipodi-0.dtd" xmlns:inkscape="http://www.inkscape.org/namespaces/inkscape" width="290.04041" height="148.62236" viewBox="0 0 76.73986 39.322998" version="1.1" id="svg8" sodipodi:docname="asrc_outline.svg" inkscape:version="0.92.2 2405546, 2018-03-11" style="">
  <defs id="defs2"></defs>
  <sodipodi:namedview id="base" pagecolor="#ffffff" bordercolor="#666666" borderopacity="1.0" inkscape:pageopacity="0.0" inkscape:pageshadow="2" inkscape:zoom="2.8284271" inkscape:cx="169.80917" inkscape:cy="119.04488" inkscape:document-units="mm" inkscape:current-layer="layer1" showgrid="false" inkscape:window-width="800" inkscape:window-height="832" inkscape:window-x="0" inkscape:window-y="28" inkscape:window-maximized="0" inkscape:snap-others="false" inkscape:object-nodes="false" inkscape:snap-nodes="false" fit-margin-top="0" fit-margin-left="0" fit-margin-right="0" fit-margin-bottom="0" units="px" showguides="true"></sodipodi:namedview>
  <metadata id="metadata5">
    <rdf:rdf>
      <cc:work rdf:about="">
        <dc:format>image/svg+xml</dc:format>
        <dc:type rdf:resource="http://purl.org/dc/dcmitype/StillImage"></dc:type>
        <dc:title></dc:title>
      </cc:work>
    </rdf:rdf>
  </metadata>
  <g inkscape:label="Base" inkscape:groupmode="layer" id="layer1" style="display:inline;opacity:1" transform="translate(-121.84881,-124.00523)">
    <path style="display: inline; opacity: 1; fill: none; fill-opacity: 1; stroke: rgb(255, 255, 255); stroke-width: 0.3; stroke-linecap: round; stroke-linejoin: round; stroke-miterlimit: 4.9; stroke-opacity: 1; paint-order: fill markers;" d="m 148.58228,125.48887 c -0.26503,0.007 -0.52651,0.0887 -0.78534,0.22551 v 0.30461 h 1.59211 v -0.30461 c -0.27316,-0.16388 -0.54175,-0.23228 -0.80677,-0.22551 z" id="path1321" class="LVGZmJTr_0"></path>
    <path style="display: inline; opacity: 1; fill: none; fill-opacity: 1; stroke: rgb(255, 255, 255); stroke-width: 0.3; stroke-linecap: round; stroke-linejoin: round; stroke-miterlimit: 4.9; stroke-opacity: 1; paint-order: fill markers;" d="m 147.84318,126.24229 v 1.52641 h 0.14444 v -1.52641 z" id="path1319" class="LVGZmJTr_1"></path>
    <path style="display: inline; opacity: 1; fill: none; fill-opacity: 1; stroke: rgb(255, 255, 255); stroke-width: 0.3; stroke-linecap: round; stroke-linejoin: round; stroke-miterlimit: 4.9; stroke-opacity: 1; paint-order: fill markers;" d="m 148.52077,126.24229 v 1.38115 h 0.14444 v -1.38115 z" id="path1317" class="LVGZmJTr_2"></path>
    <path style="display: inline; opacity: 1; fill: none; fill-opacity: 1; stroke: rgb(255, 255, 255); stroke-width: 0.3; stroke-linecap: round; stroke-linejoin: round; stroke-miterlimit: 4.9; stroke-opacity: 1; paint-order: fill markers;" d="m 149.19883,126.24229 v 1.52641 h 0.14397 v -1.52641 z" id="path1315" class="LVGZmJTr_3"></path>
    <path style="display: inline; opacity: 1; fill: none; fill-opacity: 1; stroke: rgb(255, 255, 255); stroke-width: 0.3; stroke-linecap: round; stroke-linejoin: round; stroke-miterlimit: 4.9; stroke-opacity: 1; paint-order: fill markers;" d="m 148.57389,127.86387 c -0.23269,0.004 -0.48588,0.067 -0.76892,0.21515 v 3.40926 c 0.5412,0.0607 1.15394,0.1742 1.58524,0.27935 v -3.68861 c -0.25182,-0.12976 -0.51715,-0.22069 -0.81632,-0.21515 z" id="path1313" class="LVGZmJTr_4"></path>
    <path style="display: inline; opacity: 1; fill: none; fill-opacity: 1; stroke: rgb(255, 255, 255); stroke-width: 0.3; stroke-linecap: round; stroke-linejoin: round; stroke-miterlimit: 4.9; stroke-opacity: 1; paint-order: fill markers;" d="m 146.02894,131.86173 c -3.74891,-0.0128 -7.50514,1.28083 -9.51911,3.40916 v 1.99446 c 2.61257,-3.18201 13.14127,-5.24376 18.22387,0 v -1.99446 c -2.09475,-2.36944 -5.3969,-3.39785 -8.70476,-3.40916 z" id="path1311" class="LVGZmJTr_5"></path>
    <path style="display: inline; opacity: 1; fill: none; fill-opacity: 1; stroke: rgb(255, 255, 255); stroke-width: 0.3; stroke-linecap: round; stroke-linejoin: round; stroke-miterlimit: 4.9; stroke-opacity: 1; paint-order: fill markers;" d="m 145.59119,135.11353 c -0.0282,1.7e-4 -0.0564,3.9e-4 -0.0845,6.8e-4 -0.5679,0.006 -1.0755,0.0397 -1.0755,0.0397 v 5.00219 c 0,0 0.52953,-0.0454 1.06874,-0.0694 0.0267,-8.2e-4 0.0534,-0.002 0.0801,-0.003 0.005,-2e-4 0.0104,-5e-4 0.0156,-6.9e-4 0.005,2e-4 0.0104,5.1e-4 0.0156,6.9e-4 0.0268,8.2e-4 0.0535,0.002 0.0801,0.003 0.53921,0.024 1.06875,0.0694 1.06875,0.0694 v -5.00219 c 0,0 -0.50772,-0.0339 -1.07562,-0.0397 -0.0281,-3e-4 -0.0561,-5.1e-4 -0.0843,-6.9e-4 -10e-4,-1e-5 -0.003,0 -0.005,0 -0.001,0 -0.003,-1e-5 -0.005,0 z" id="path1309" class="LVGZmJTr_6"></path>
    <path style="display: inline; opacity: 1; fill: none; fill-opacity: 1; stroke: rgb(255, 255, 255); stroke-width: 0.3; stroke-linecap: round; stroke-linejoin: round; stroke-miterlimit: 4.9; stroke-opacity: 1; paint-order: fill markers;" d="m 143.64974,135.22139 c 0,0 -0.56425,0.0544 -1.07771,0.14035 -0.51355,0.086 -0.92291,0.2056 -0.92291,0.2056 v 4.99521 c 0,0 0.57997,-0.10313 1.06782,-0.18464 0.48783,-0.0815 0.9328,-0.14151 0.9328,-0.14151 z" id="path1307" class="LVGZmJTr_7"></path>
    <path style="display: inline; opacity: 1; fill: none; fill-opacity: 1; stroke: rgb(255, 255, 255); stroke-width: 0.3; stroke-linecap: round; stroke-linejoin: round; stroke-miterlimit: 4.9; stroke-opacity: 1; paint-order: fill markers;" d="m 147.54172,135.22139 v 5.01501 c 0,0 0.44486,0.06 0.93269,0.14151 0.48785,0.0815 1.06793,0.18464 1.06793,0.18464 v -4.99521 c 0,0 -0.40936,-0.11955 -0.92291,-0.2056 -0.51346,-0.086 -1.07771,-0.14035 -1.07771,-0.14035 z" id="path1305" class="LVGZmJTr_8"></path>
    <path style="display: inline; opacity: 1; fill: none; fill-opacity: 1; stroke: rgb(255, 255, 255); stroke-width: 0.3; stroke-linecap: round; stroke-linejoin: round; stroke-miterlimit: 4.9; stroke-opacity: 1; paint-order: fill markers;" d="m 140.66122,135.80941 c -0.0897,0.0276 -0.19689,0.0615 -0.31696,0.10168 -0.5143,0.17211 -1.05069,0.4741 -1.05069,0.4741 v 4.81465 c 0,0 0.79573,-0.22005 1.29135,-0.35528 0.17565,-0.0479 0.13254,-0.0934 0.29587,-0.13372 v -4.90143 z" id="path1303" class="LVGZmJTr_9"></path>
    <path style="display: inline; opacity: 1; fill: none; fill-opacity: 1; stroke: rgb(255, 255, 255); stroke-width: 0.3; stroke-linecap: round; stroke-linejoin: round; stroke-miterlimit: 4.9; stroke-opacity: 1; paint-order: fill markers;" d="m 150.31067,135.80941 v 4.90143 c 0.16334,0.0403 0.12023,0.0858 0.29587,0.13372 0.49563,0.13523 1.29135,0.35528 1.29135,0.35528 v -4.81465 c 0,0 -0.53651,-0.30199 -1.05081,-0.4741 -0.12007,-0.0402 -0.22716,-0.0741 -0.31683,-0.10168 z" id="path1301" class="LVGZmJTr_10"></path>
    <path style="display: inline; opacity: 1; fill: none; fill-opacity: 1; stroke: rgb(255, 255, 255); stroke-width: 0.3; stroke-linecap: round; stroke-linejoin: round; stroke-miterlimit: 4.9; stroke-opacity: 1; paint-order: fill markers;" d="m 138.84429,136.61699 c -0.38194,0.21917 -0.59539,0.41582 -0.95531,0.71125 v 4.49689 c 0,0 0.36706,-0.17463 0.68099,-0.30344 0.21831,-0.0895 0.27432,-0.15959 0.27432,-0.15959 z" id="path1299" class="LVGZmJTr_11"></path>
    <path style="display: inline; opacity: 1; fill: none; fill-opacity: 1; stroke: rgb(255, 255, 255); stroke-width: 0.3; stroke-linecap: round; stroke-linejoin: round; stroke-miterlimit: 4.9; stroke-opacity: 1; paint-order: fill markers;" d="m 152.34717,136.61699 v 4.74511 c 0,0 0.056,0.0701 0.27432,0.15959 0.31393,0.12881 0.67155,0.30344 0.67155,0.30344 v -4.49689 c -0.34899,-0.3203 -0.53202,-0.45441 -0.94587,-0.71125 z" id="path1297" class="LVGZmJTr_12"></path>
    <path style="display: inline; opacity: 1; fill: none; fill-opacity: 1; stroke: rgb(255, 255, 255); stroke-width: 0.3; stroke-linecap: round; stroke-linejoin: round; stroke-miterlimit: 4.9; stroke-opacity: 1; paint-order: fill markers;" d="m 162.289,137.54839 -4.99799,11.51649 h 2.15274 l 0.90322,-2.16779 h 3.67323 l 0.85802,2.16779 h 2.52911 l -4.998,-11.51649 z" id="path1295" class="LVGZmJTr_13"></path>
    <path style="display: inline; opacity: 1; fill: none; fill-opacity: 1; stroke: rgb(255, 255, 255); stroke-width: 0.3; stroke-linecap: round; stroke-linejoin: round; stroke-miterlimit: 4.9; stroke-opacity: 1; paint-order: fill markers;" d="m 137.48888,137.58149 c -0.25372,0.20751 -0.37902,0.37972 -0.55493,0.58941 v 4.15232 l 0.55493,-0.34386 z" id="path1293" class="LVGZmJTr_14"></path>
    <path style="display: inline; opacity: 1; fill: none; fill-opacity: 1; stroke: rgb(255, 255, 255); stroke-width: 0.3; stroke-linecap: round; stroke-linejoin: round; stroke-miterlimit: 4.9; stroke-opacity: 1; paint-order: fill markers;" d="m 153.70247,137.58149 v 4.39787 l 0.55505,0.34386 v -4.15234 c -0.16923,-0.20352 -0.32894,-0.36276 -0.55505,-0.58939 z" id="path1291" class="LVGZmJTr_15"></path>
    <path style="display: inline; opacity: 1; fill: none; fill-opacity: 1; stroke: rgb(255, 255, 255); stroke-width: 0.3; stroke-linecap: round; stroke-linejoin: round; stroke-miterlimit: 4.9; stroke-opacity: 1; paint-order: fill markers;" d="m 192.44928,137.86454 c -1.06383,0 -2.00227,0.24592 -2.8152,0.7377 -0.81292,0.48172 -1.44521,1.15916 -1.89683,2.0323 -0.4516,0.87315 -0.67736,1.86672 -0.67736,2.98072 0,1.01365 0.22576,1.94699 0.67736,2.80006 0.45162,0.84303 1.10399,1.51547 1.95705,2.01728 0.85307,0.5018 1.85674,0.75272 3.01089,0.75272 0.72261,0 1.38994,-0.11548 2.00215,-0.34631 0.6122,-0.23083 1.05878,-0.46167 1.3398,-0.6925 l -0.90322,-1.95706 c -0.2509,0.24087 -0.59211,0.45163 -1.02367,0.63228 -0.43155,0.17062 -0.9183,0.25592 -1.46025,0.25592 -0.67241,0 -1.25956,-0.15053 -1.76136,-0.45161 -0.50181,-0.30108 -0.88816,-0.7175 -1.15914,-1.24941 -0.27097,-0.54195 -0.40653,-1.16925 -0.40653,-1.88181 0,-0.65235 0.14554,-1.24448 0.43659,-1.77639 0.29104,-0.54195 0.68251,-0.96847 1.17428,-1.27958 0.49176,-0.31112 1.01867,-0.46676 1.58069,-0.46676 0.83299,0 1.64586,0.30118 2.43872,0.90334 l 0.85814,-2.06247 c -0.43156,-0.27099 -0.93339,-0.49682 -1.50545,-0.67749 -0.57205,-0.18064 -1.19424,-0.27093 -1.86666,-0.27093 z" id="path1289" class="LVGZmJTr_16"></path>
    <path style="display: inline; opacity: 1; fill: none; fill-opacity: 1; stroke: rgb(255, 255, 255); stroke-width: 0.3; stroke-linecap: round; stroke-linejoin: round; stroke-miterlimit: 4.9; stroke-opacity: 1; paint-order: fill markers;" d="m 172.07882,137.92474 c -1.04375,0.0502 -1.88169,0.36633 -2.51397,0.94843 -0.62223,0.58209 -0.93338,1.34982 -0.93338,2.30324 0,0.65235 0.15052,1.19434 0.4516,1.62589 0.31112,0.43155 0.6774,0.76279 1.09892,0.99362 0.42152,0.23082 0.94842,0.47164 1.58069,0.72255 1.07387,0.42151 1.61087,0.91836 1.61087,1.49042 0,0.44158 -0.17061,0.76272 -0.51183,0.96344 -0.34123,0.19068 -0.74268,0.28597 -1.20434,0.28597 -0.39141,0 -0.83301,-0.0903 -1.32478,-0.27094 -0.49176,-0.18065 -0.92837,-0.41149 -1.30975,-0.6925 l -0.96344,1.70113 c 0.56202,0.40145 1.16924,0.70251 1.82159,0.90322 0.65234,0.19069 1.30969,0.28609 1.97208,0.28609 0.79285,0 1.47527,-0.14054 2.04733,-0.42155 0.57206,-0.29105 1.00356,-0.67741 1.29461,-1.15914 0.30108,-0.49177 0.45172,-1.02366 0.45172,-1.59572 0,-0.66239 -0.12545,-1.20937 -0.37636,-1.64092 -0.24086,-0.43156 -0.54702,-0.76777 -0.91836,-1.00864 -0.37134,-0.2509 -0.81792,-0.47176 -1.3398,-0.66245 -0.64232,-0.24086 -1.15913,-0.49166 -1.55053,-0.7526 -0.38137,-0.27098 -0.57205,-0.58213 -0.57205,-0.93339 0,-0.38138 0.13044,-0.66746 0.39138,-0.85814 0.27098,-0.19068 0.64724,-0.28598 1.12897,-0.28598 0.71256,0 1.55062,0.2659 2.51408,0.79781 l 0.82798,-1.67098 c -0.52188,-0.34121 -1.05876,-0.60213 -1.61075,-0.78277 -0.55199,-0.19069 -1.23952,-0.28609 -2.06248,-0.28609 z" id="path1287" class="LVGZmJTr_17"></path>
    <path style="display: inline; opacity: 1; fill: none; fill-opacity: 1; stroke: rgb(255, 255, 255); stroke-width: 0.3; stroke-linecap: round; stroke-linejoin: round; stroke-miterlimit: 4.9; stroke-opacity: 1; paint-order: fill markers;" d="m 177.79914,137.98494 v 11.07989 h 2.18292 v -3.5227 h 1.46025 l 2.33342,3.52273 h 2.54413 l -2.5743,-4.01954 c 0.59213,-0.34122 1.02874,-0.80789 1.30975,-1.40002 0.29105,-0.60217 0.43659,-1.24443 0.43659,-1.92689 0,-1.15414 -0.38137,-2.06242 -1.14412,-2.72481 -0.7527,-0.67242 -1.81661,-1.00863 -3.19156,-1.00863 z" id="path1285" class="LVGZmJTr_18"></path>
    <path style="display: inline; opacity: 1; fill: none; fill-opacity: 1; stroke: rgb(255, 255, 255); stroke-width: 0.3; stroke-linecap: round; stroke-linejoin: round; stroke-miterlimit: 4.9; stroke-opacity: 1; paint-order: fill markers;" d="m 179.98206,140.09249 h 1.56567 c 0.66238,0 1.10898,0.1857 1.3398,0.55703 0.23084,0.3613 0.3462,0.74267 0.3462,1.14412 0,0.40144 -0.13544,0.77781 -0.40642,1.12908 -0.27097,0.34123 -0.70259,0.51183 -1.29472,0.51183 h -1.55053 z" id="path1283" class="LVGZmJTr_19"></path>
    <path style="display: inline; opacity: 1; fill: none; fill-opacity: 1; stroke: rgb(255, 255, 255); stroke-width: 0.3; stroke-linecap: round; stroke-linejoin: round; stroke-miterlimit: 4.9; stroke-opacity: 1; paint-order: fill markers;" d="m 145.60226,141.04814 v 1.2e-4 c -3.26464,0.002 -6.5228,0.77252 -9.09243,2.30033 v 6.7964 l -5.98975,-0.0296 -0.54165,0.39721 v 1.2154 l -5.5781,3.90852 h 0.54946 v 0.7498 l -0.54946,0.40827 c -0.007,0.97578 -0.01,1.95161 -0.01,2.92738 2.93143,-1e-5 5.8628,-0.002 8.79423,-0.002 v -1.85234 h 1.06805 v 1.86073 h 34.34211 l -10.64854,-1.89661 -3.21288,-3.78026 v -10.70304 c -2.59571,-1.53923 -5.86681,-2.3032 -9.13144,-2.30033 z" id="path1281" class="LVGZmJTr_20"></path>
    <path style="display: inline; opacity: 1; fill: none; fill-opacity: 1; stroke: rgb(255, 255, 255); stroke-width: 0.3; stroke-linecap: round; stroke-linejoin: round; stroke-miterlimit: 4.9; stroke-opacity: 1; paint-order: fill markers;" d="m 162.22878,142.36569 1.06874,2.69475 h -2.1828 z" id="path1279" class="LVGZmJTr_21"></path>
    <path style="display: inline; opacity: 1; fill: none; fill-opacity: 1; stroke: rgb(255, 255, 255); stroke-width: 0.3; stroke-linecap: round; stroke-linejoin: round; stroke-miterlimit: 4.9; stroke-opacity: 1; paint-order: fill markers;" d="m 142.85683,145.6417 v 2.85247 l -2.74938,0.0638 v -2.63942 c 0.86618,-0.12581 1.79865,-0.20743 2.74938,-0.27688 z" id="path1277" class="LVGZmJTr_22"></path>
    <path style="display: inline; opacity: 1; fill: none; fill-opacity: 1; stroke: rgb(255, 255, 255); stroke-width: 0.3; stroke-linecap: round; stroke-linejoin: round; stroke-miterlimit: 4.9; stroke-opacity: 1; paint-order: fill markers;" d="m 148.27382,145.6417 c 0.95074,0.0695 1.8832,0.15107 2.74939,0.27688 v 2.63942 l -2.74939,-0.0638 z" id="path1275" class="LVGZmJTr_23"></path>
    <path style="display: inline; opacity: 1; fill: none; fill-opacity: 1; stroke: rgb(255, 255, 255); stroke-width: 0.3; stroke-linecap: round; stroke-linejoin: round; stroke-miterlimit: 4.9; stroke-opacity: 1; paint-order: fill markers;" d="m 131.44427,147.29241 -0.57101,0.40128 v 2.14286 l 0.57101,-0.40129 z" id="path1273" class="LVGZmJTr_24"></path>
    <path style="display: inline; opacity: 1; fill: none; fill-opacity: 1; stroke: rgb(255, 255, 255); stroke-width: 0.3; stroke-linecap: round; stroke-linejoin: round; stroke-miterlimit: 4.9; stroke-opacity: 1; paint-order: fill markers;" d="m 132.18532,148.19612 -0.4183,0.37669 h 3.97582 l 0.41818,-0.37658 v -1.1e-4 z" id="path1271" class="LVGZmJTr_25"></path>
    <path style="display: inline; opacity: 1; fill: none; fill-opacity: 1; stroke: rgb(255, 255, 255); stroke-width: 0.3; stroke-linecap: round; stroke-linejoin: round; stroke-miterlimit: 4.9; stroke-opacity: 1; paint-order: fill markers;" d="m 132.18534,149.09885 -0.4183,0.37669 h 3.95928 l 0.41818,-0.37657 v -1.2e-4 z" id="path1269" class="LVGZmJTr_26"></path>
    <path style="display: inline; opacity: 1; fill: none; fill-opacity: 1; stroke: rgb(255, 255, 255); stroke-width: 0.3; stroke-linecap: round; stroke-linejoin: round; stroke-miterlimit: 4.9; stroke-opacity: 1; paint-order: fill markers;" d="m 185.50986,151.0071 -1.58233,3.64595 h 0.68155 l 0.28597,-0.68631 h 1.16286 l 0.27164,0.68631 h 0.80072 l -1.58233,-3.64595 z" id="path1267" class="LVGZmJTr_27"></path>
    <path style="display: inline; opacity: 1; fill: none; fill-opacity: 1; stroke: rgb(255, 255, 255); stroke-width: 0.3; stroke-linecap: round; stroke-linejoin: round; stroke-miterlimit: 4.9; stroke-opacity: 1; paint-order: fill markers;" d="m 190.18147,151.10716 c -0.3368,0 -0.63387,0.0779 -0.89123,0.23355 -0.25736,0.15251 -0.4575,0.36692 -0.60047,0.64334 -0.14298,0.27641 -0.21445,0.59108 -0.21446,0.94375 1e-5,0.32092 0.0715,0.61639 0.21446,0.88645 0.14297,0.26689 0.34951,0.4797 0.61958,0.63858 0.27006,0.15885 0.5878,0.23831 0.95318,0.23831 0.22877,0 0.43999,-0.0365 0.6338,-0.10959 0.19381,-0.0731 0.33527,-0.14615 0.42424,-0.21924 l -0.28597,-0.61958 c -0.0795,0.0763 -0.18744,0.14294 -0.32406,0.20012 -0.13662,0.054 -0.29076,0.0811 -0.46233,0.0811 -0.21288,0 -0.39875,-0.0477 -0.55761,-0.14303 -0.15886,-0.0953 -0.28115,-0.22707 -0.36693,-0.39546 -0.0858,-0.17158 -0.12871,-0.37025 -0.12871,-0.59583 0,-0.20651 0.046,-0.39399 0.13815,-0.56238 0.0921,-0.17157 0.21613,-0.30652 0.37181,-0.40503 0.15569,-0.0985 0.3225,-0.1478 0.50042,-0.1478 0.26372,0 0.52106,0.0953 0.77207,0.28596 l 0.27163,-0.65289 c -0.13662,-0.0858 -0.29543,-0.15726 -0.47653,-0.21445 -0.18111,-0.0572 -0.37816,-0.0859 -0.59104,-0.0859 z" id="path1265" class="LVGZmJTr_28"></path>
    <path style="display: inline; opacity: 1; fill: none; fill-opacity: 1; stroke: rgb(255, 255, 255); stroke-width: 0.3; stroke-linecap: round; stroke-linejoin: round; stroke-miterlimit: 4.9; stroke-opacity: 1; paint-order: fill markers;" d="m 163.90489,151.14526 v 3.50781 h 0.69099 V 153.228 h 1.568 v 1.42507 h 0.6911 v -3.50781 h -0.6911 v 1.4155 h -1.568 v -1.4155 z" id="path1263" class="LVGZmJTr_29"></path>
    <path style="display: inline; opacity: 1; fill: none; fill-opacity: 1; stroke: rgb(255, 255, 255); stroke-width: 0.3; stroke-linecap: round; stroke-linejoin: round; stroke-miterlimit: 4.9; stroke-opacity: 1; paint-order: fill markers;" d="m 169.05339,151.14526 v 3.50781 h 0.69111 v -3.50781 z" id="path1261" class="LVGZmJTr_30"></path>
    <path style="display: inline; opacity: 1; fill: none; fill-opacity: 1; stroke: rgb(255, 255, 255); stroke-width: 0.3; stroke-linecap: round; stroke-linejoin: round; stroke-miterlimit: 4.9; stroke-opacity: 1; paint-order: fill markers;" d="m 171.71098,151.14526 v 0.66733 h 0.81971 v 2.84048 h 0.6911 v -2.84048 h 0.85313 v -0.66733 z" id="path1259" class="LVGZmJTr_31"></path>
    <path style="display: inline; opacity: 1; fill: none; fill-opacity: 1; stroke: rgb(255, 255, 255); stroke-width: 0.3; stroke-linecap: round; stroke-linejoin: round; stroke-miterlimit: 4.9; stroke-opacity: 1; paint-order: fill markers;" d="m 176.03664,151.14526 v 3.50781 h 2.45921 v -0.66723 h -1.76811 V 153.228 h 1.50602 v -0.66724 h -1.50602 v -0.74817 h 1.70138 v -0.66733 z" id="path1257" class="LVGZmJTr_32"></path>
    <path style="display: inline; opacity: 1; fill: none; fill-opacity: 1; stroke: rgb(255, 255, 255); stroke-width: 0.3; stroke-linecap: round; stroke-linejoin: round; stroke-miterlimit: 4.9; stroke-opacity: 1; paint-order: fill markers;" d="m 180.50568,151.14526 v 3.50781 h 0.6911 v -1.37744 h 1.30102 v -0.66721 h -1.30102 v -0.79583 h 1.50126 v -0.66733 z" id="path1255" class="LVGZmJTr_33"></path>
    <path style="display: inline; opacity: 1; fill: none; fill-opacity: 1; stroke: rgb(255, 255, 255); stroke-width: 0.3; stroke-linecap: round; stroke-linejoin: round; stroke-miterlimit: 4.9; stroke-opacity: 1; paint-order: fill markers;" d="m 193.30768,151.14526 v 3.50781 h 2.45921 v -0.66723 h -1.76812 V 153.228 h 1.50604 v -0.66724 h -1.50604 v -0.74817 h 1.70138 v -0.66733 z" id="path1253" class="LVGZmJTr_34"></path>
    <path style="display: inline; opacity: 1; fill: none; fill-opacity: 1; stroke: rgb(255, 255, 255); stroke-width: 0.3; stroke-linecap: round; stroke-linejoin: round; stroke-miterlimit: 4.9; stroke-opacity: 1; paint-order: fill markers;" d="m 157.43209,151.16916 1.41074,3.64597 0.9723,-2.08752 0.83403,2.07796 1.35354,-3.63641 h -0.74352 l -0.5957,1.94926 -0.78639,-1.94926 h -0.68632 l 0.27641,0.6911 -0.53373,1.33922 -0.6911,-2.03032 z" id="path1251" class="LVGZmJTr_35"></path>
    <path style="display: inline; opacity: 1; fill: none; fill-opacity: 1; stroke: rgb(255, 255, 255); stroke-width: 0.3; stroke-linecap: round; stroke-linejoin: round; stroke-miterlimit: 4.9; stroke-opacity: 1; paint-order: fill markers;" d="m 142.85685,151.77721 v 2.74484 h -2.74938 v -2.63932 z" id="path1249" class="LVGZmJTr_36"></path>
    <path style="display: inline; opacity: 1; fill: none; fill-opacity: 1; stroke: rgb(255, 255, 255); stroke-width: 0.3; stroke-linecap: round; stroke-linejoin: round; stroke-miterlimit: 4.9; stroke-opacity: 1; paint-order: fill markers;" d="m 148.27384,151.77721 2.74939,0.10552 v 2.63932 h -2.74939 z" id="path1247" class="LVGZmJTr_37"></path>
    <path style="display: inline; opacity: 1; fill: none; fill-opacity: 1; stroke: rgb(255, 255, 255); stroke-width: 0.3; stroke-linecap: round; stroke-linejoin: round; stroke-miterlimit: 4.9; stroke-opacity: 1; paint-order: fill markers;" d="m 133.66588,151.86611 1.12559,1.89357 0.35469,-0.31196 0.33571,0.74994 0.7073,0.62482 v 1.42822 h -4.80196 v -1.79247 l 0.38778,-0.53594 0.13826,0.3937 0.27467,-0.0855 0.7264,-1.4267 0.21666,-0.0778 z" id="path1245" class="LVGZmJTr_38"></path>
    <path style="display: inline; opacity: 1; fill: none; fill-opacity: 1; stroke: rgb(255, 255, 255); stroke-width: 0.3; stroke-linecap: round; stroke-linejoin: round; stroke-miterlimit: 4.9; stroke-opacity: 1; paint-order: fill markers;" d="m 185.49075,152.53228 0.33838,0.85302 h -0.69098 z" id="path1243" class="LVGZmJTr_39"></path>
    <path style="display: inline; opacity: 1; fill: none; fill-opacity: 1; stroke: rgb(255, 255, 255); stroke-width: 0.3; stroke-linecap: round; stroke-linejoin: round; stroke-miterlimit: 4.9; stroke-opacity: 1; paint-order: fill markers;" d="m 131.38721,156.41297 h 4.80196 v 1.08609 h -4.80196 z" id="path5065" class="LVGZmJTr_40"></path>
  </g>
<style data-made-with="vivus-instant">.LVGZmJTr_0{stroke-dasharray:4 6;stroke-dashoffset:5;animation:LVGZmJTr_draw 1666ms ease-out 0ms forwards;}.LVGZmJTr_1{stroke-dasharray:4 6;stroke-dashoffset:5;animation:LVGZmJTr_draw 1666ms ease-out 20ms forwards;}.LVGZmJTr_2{stroke-dasharray:4 6;stroke-dashoffset:5;animation:LVGZmJTr_draw 1666ms ease-out 41ms forwards;}.LVGZmJTr_3{stroke-dasharray:4 6;stroke-dashoffset:5;animation:LVGZmJTr_draw 1666ms ease-out 62ms forwards;}.LVGZmJTr_4{stroke-dasharray:11 13;stroke-dashoffset:12;animation:LVGZmJTr_draw 1666ms ease-out 83ms forwards;}.LVGZmJTr_5{stroke-dasharray:44 46;stroke-dashoffset:45;animation:LVGZmJTr_draw 1666ms ease-out 104ms forwards;}.LVGZmJTr_6{stroke-dasharray:15 17;stroke-dashoffset:16;animation:LVGZmJTr_draw 1666ms ease-out 125ms forwards;}.LVGZmJTr_7{stroke-dasharray:15 17;stroke-dashoffset:16;animation:LVGZmJTr_draw 1666ms ease-out 145ms forwards;}.LVGZmJTr_8{stroke-dasharray:15 17;stroke-dashoffset:16;animation:LVGZmJTr_draw 1666ms ease-out 166ms forwards;}.LVGZmJTr_9{stroke-dasharray:14 16;stroke-dashoffset:15;animation:LVGZmJTr_draw 1666ms ease-out 187ms forwards;}.LVGZmJTr_10{stroke-dasharray:14 16;stroke-dashoffset:15;animation:LVGZmJTr_draw 1666ms ease-out 208ms forwards;}.LVGZmJTr_11{stroke-dasharray:12 14;stroke-dashoffset:13;animation:LVGZmJTr_draw 1666ms ease-out 229ms forwards;}.LVGZmJTr_12{stroke-dasharray:12 14;stroke-dashoffset:13;animation:LVGZmJTr_draw 1666ms ease-out 250ms forwards;}.LVGZmJTr_13{stroke-dasharray:39 41;stroke-dashoffset:40;animation:LVGZmJTr_draw 1666ms ease-out 270ms forwards;}.LVGZmJTr_14{stroke-dasharray:11 13;stroke-dashoffset:12;animation:LVGZmJTr_draw 1666ms ease-out 291ms forwards;}.LVGZmJTr_15{stroke-dasharray:11 13;stroke-dashoffset:12;animation:LVGZmJTr_draw 1666ms ease-out 312ms forwards;}.LVGZmJTr_16{stroke-dasharray:46 48;stroke-dashoffset:47;animation:LVGZmJTr_draw 1666ms ease-out 333ms forwards;}.LVGZmJTr_17{stroke-dasharray:48 50;stroke-dashoffset:49;animation:LVGZmJTr_draw 1666ms ease-out 354ms forwards;}.LVGZmJTr_18{stroke-dasharray:44 46;stroke-dashoffset:45;animation:LVGZmJTr_draw 1666ms ease-out 375ms forwards;}.LVGZmJTr_19{stroke-dasharray:12 14;stroke-dashoffset:13;animation:LVGZmJTr_draw 1666ms ease-out 395ms forwards;}.LVGZmJTr_20{stroke-dasharray:120 122;stroke-dashoffset:121;animation:LVGZmJTr_draw 1666ms ease-out 416ms forwards;}.LVGZmJTr_21{stroke-dasharray:8 10;stroke-dashoffset:9;animation:LVGZmJTr_draw 1666ms ease-out 437ms forwards;}.LVGZmJTr_22{stroke-dasharray:12 14;stroke-dashoffset:13;animation:LVGZmJTr_draw 1666ms ease-out 458ms forwards;}.LVGZmJTr_23{stroke-dasharray:12 14;stroke-dashoffset:13;animation:LVGZmJTr_draw 1666ms ease-out 479ms forwards;}.LVGZmJTr_24{stroke-dasharray:6 8;stroke-dashoffset:7;animation:LVGZmJTr_draw 1666ms ease-out 500ms forwards;}.LVGZmJTr_25{stroke-dasharray:10 12;stroke-dashoffset:11;animation:LVGZmJTr_draw 1666ms ease-out 520ms forwards;}.LVGZmJTr_26{stroke-dasharray:10 12;stroke-dashoffset:11;animation:LVGZmJTr_draw 1666ms ease-out 541ms forwards;}.LVGZmJTr_27{stroke-dasharray:13 15;stroke-dashoffset:14;animation:LVGZmJTr_draw 1666ms ease-out 562ms forwards;}.LVGZmJTr_28{stroke-dasharray:15 17;stroke-dashoffset:16;animation:LVGZmJTr_draw 1666ms ease-out 583ms forwards;}.LVGZmJTr_29{stroke-dasharray:19 21;stroke-dashoffset:20;animation:LVGZmJTr_draw 1666ms ease-out 604ms forwards;}.LVGZmJTr_30{stroke-dasharray:9 11;stroke-dashoffset:10;animation:LVGZmJTr_draw 1666ms ease-out 625ms forwards;}.LVGZmJTr_31{stroke-dasharray:12 14;stroke-dashoffset:13;animation:LVGZmJTr_draw 1666ms ease-out 645ms forwards;}.LVGZmJTr_32{stroke-dasharray:19 21;stroke-dashoffset:20;animation:LVGZmJTr_draw 1666ms ease-out 666ms forwards;}.LVGZmJTr_33{stroke-dasharray:15 17;stroke-dashoffset:16;animation:LVGZmJTr_draw 1666ms ease-out 687ms forwards;}.LVGZmJTr_34{stroke-dasharray:19 21;stroke-dashoffset:20;animation:LVGZmJTr_draw 1666ms ease-out 708ms forwards;}.LVGZmJTr_35{stroke-dasharray:24 26;stroke-dashoffset:25;animation:LVGZmJTr_draw 1666ms ease-out 729ms forwards;}.LVGZmJTr_36{stroke-dasharray:11 13;stroke-dashoffset:12;animation:LVGZmJTr_draw 1666ms ease-out 750ms forwards;}.LVGZmJTr_37{stroke-dasharray:11 13;stroke-dashoffset:12;animation:LVGZmJTr_draw 1666ms ease-out 770ms forwards;}.LVGZmJTr_38{stroke-dasharray:17 19;stroke-dashoffset:18;animation:LVGZmJTr_draw 1666ms ease-out 791ms forwards;}.LVGZmJTr_39{stroke-dasharray:3 5;stroke-dashoffset:4;animation:LVGZmJTr_draw 1666ms ease-out 812ms forwards;}.LVGZmJTr_40{stroke-dasharray:12 14;stroke-dashoffset:13;animation:LVGZmJTr_draw 1666ms ease-out 833ms forwards;}@keyframes LVGZmJTr_draw{100%{stroke-dashoffset:0;}}@keyframes LVGZmJTr_fade{0%{stroke-opacity:1;}94.02985074626866%{stroke-opacity:1;}100%{stroke-opacity:0;}}</style></svg>
