<?xml version="1.0" encoding="UTF-8" standalone="no"?>
<!-- Created with Inkscape (http://www.inkscape.org/) -->

<svg
   xmlns:dc="http://purl.org/dc/elements/1.1/"
   xmlns:cc="http://creativecommons.org/ns#"
   xmlns:rdf="http://www.w3.org/1999/02/22-rdf-syntax-ns#"
   xmlns:svg="http://www.w3.org/2000/svg"
   xmlns="http://www.w3.org/2000/svg"
   xmlns:sodipodi="http://sodipodi.sourceforge.net/DTD/sodipodi-0.dtd"
   xmlns:inkscape="http://www.inkscape.org/namespaces/inkscape"
   width="256mm"
   height="256mm"
   viewBox="0 0 256 256"
   version="1.1"
   id="svg8"
   inkscape:version="0.92.2 2405546, 2018-03-11"
   sodipodi:docname="logo.svg">
  <defs
     id="defs2" />
  <sodipodi:namedview
     id="base"
     pagecolor="#ffffff"
     bordercolor="#666666"
     borderopacity="1.0"
     inkscape:pageopacity="0.0"
     inkscape:pageshadow="2"
     inkscape:zoom="0.175"
     inkscape:cx="116.30795"
     inkscape:cy="-281.77164"
     inkscape:document-units="mm"
     inkscape:current-layer="layer1"
     showgrid="false"
     fit-margin-top="0"
     fit-margin-left="0"
     fit-margin-right="0"
     fit-margin-bottom="0"
     inkscape:window-width="1084"
     inkscape:window-height="1012"
     inkscape:window-x="1476"
     inkscape:window-y="28"
     inkscape:window-maximized="0"
     inkscape:pagecheckerboard="true" />
  <metadata
     id="metadata5">
    <rdf:RDF>
      <cc:Work
         rdf:about="">
        <dc:format>image/svg+xml</dc:format>
        <dc:type
           rdf:resource="http://purl.org/dc/dcmitype/StillImage" />
        <dc:title></dc:title>
      </cc:Work>
    </rdf:RDF>
  </metadata>
  <g
     inkscape:label="Layer 1"
     inkscape:groupmode="layer"
     id="layer1"
     transform="translate(-16.21348,124.62694)">
    <path
       style="font-style:normal;font-variant:normal;font-weight:bold;font-stretch:normal;font-size:medium;line-height:1.25;font-family:'Josefin Sans';-inkscape-font-specification:'Josefin Sans Bold';letter-spacing:0px;word-spacing:0px;fill:#ffffff;fill-opacity:1;stroke:none;stroke-width:3.4825325"
       d="M 58.096762,-58.67403 99.330647,47.891424 109.44426,26.176612 V -2.0901108 c 0,-7.0548823 5.56347,-13.0859162 12.68209,-13.0859162 h 24.97966 L 129.55863,-58.67403 h -20.05945 l 8.07962,20.199 L 101.97783,0.6684452 81.77882,-58.67403 Z m 111.859888,0 -13.29527,43.498003 h 18.83607 l 16.19038,-43.498003 z"
       id="path819"
       inkscape:connector-curvature="0"
       sodipodi:nodetypes="cccsscccccccccccc" />
    <path
       id="path822-8"
       d="M 223.07843,-9.4008183 H 122.12776 c -3.7411,0 -6.90656,3.280763 -6.90656,7.3093825 V 58.110675 c 0,4.028581 3.16546,7.309475 7.07925,7.309475 h 27.45344 c 3.10803,0 5.75558,-1.842543 6.67639,-4.546857 l 8.00002,-19.971481 c 1.38134,-3.338169 4.60444,-5.697961 8.34552,-5.697961 3.74105,0 6.96395,2.359792 8.34526,5.697961 l 8.00005,19.971481 c 1.09416,2.704954 3.56855,4.546857 6.38859,4.546857 h 27.56871 c 4.08629,0 7.25177,-3.280894 7.25177,-7.309475 V -2.0914358 c 0,-4.0286195 -3.16548,-7.3093825 -7.25177,-7.3093825 m -77.8137,49.3817873 c -7.0216,0 -12.77718,-5.928054 -12.77718,-13.17999 0,-7.424493 5.75558,-13.179861 12.77718,-13.179861 7.02161,0 12.71956,5.755368 12.71956,13.179861 0,7.251936 -5.69795,13.17999 -12.71956,13.17999 m 55.02214,0 c -7.02181,0 -12.71956,-5.928054 -12.71956,-13.17999 0,-7.251764 5.69775,-13.179861 12.71956,-13.179861 7.0216,0 12.77698,5.928097 12.77698,13.179861 0,7.251936 -5.75538,13.17999 -12.77698,13.17999 z"
       inkscape:connector-curvature="0"
       style="stroke-width:5.755445;fill:#ffffff" />
  </g>
</svg>
